<?xml version="1.0" encoding="utf-8"?>
<!-- Svg Vector Icons : http://www.onlinewebfonts.com/icon -->
<!DOCTYPE svg PUBLIC "-//W3C//DTD SVG 1.1//EN" "http://www.w3.org/Graphics/SVG/1.1/DTD/svg11.dtd">
<svg version="1.1" xmlns="http://www.w3.org/2000/svg" xmlns:xlink="http://www.w3.org/1999/xlink" x="0px" y="0px" viewBox="0 0 1000 1000" enable-background="new 0 0 1000 1000" xml:space="preserve">
<metadata> Svg Vector Icons : http://www.onlinewebfonts.com/icon </metadata>
    <g><path d="M835,229.8c-5.8-14.4-22.2-21.4-36.5-15.6c-14.4,5.8-21.4,22.1-15.7,36.5c17.2,42.9,26.1,83.7,26.1,124.4c0,52.7-32.6,133.8-91,233.4c-21.4,36.3-45.7,74.4-72.6,113.7c-36.5,53.5-75.6,106.7-114.8,156.9c-10.8,13.9-21,26.8-30.5,38.5c-9.5-11.7-19.7-24.6-30.5-38.5c-39.2-50.2-78.3-103.4-114.8-156.9c-26.8-39.3-51.2-77.4-72.5-113.7c-58.5-99.6-91.1-180.7-91.1-233.4c0-169.8,139.1-308.9,308.9-308.9c57.5,0,114.3,17.2,164.7,49c13.1,8.3,30.4,4.4,38.7-8.7c8.2-13.1,4.4-30.4-8.8-38.7C635.5,30.3,568.4,10,500,10c-200.8,0-365,164.2-365,365c0,65.7,35.5,154.1,98.8,261.8c22,37.4,47.1,76.6,74.6,116.9c37.2,54.6,77.1,108.6,116.9,159.7c14,17.9,26.9,34.2,38.5,48.5c7,8.7,12,14.7,14.8,18c11.2,13.4,31.8,13.4,43,0c2.7-3.3,7.8-9.3,14.8-18c11.6-14.3,24.6-30.5,38.5-48.5c39.8-51.1,79.6-105.1,116.9-159.7c27.5-40.4,52.5-79.5,74.5-116.9C829.5,529.2,865,440.7,865,375C865,326.7,854.6,279,835,229.8L835,229.8z M331.5,386.3c0,88.4,71.7,160,160.1,160c88.4,0,160.1-71.7,160.1-160c0-88.4-71.7-160.1-160.1-160.1C403.2,226.2,331.5,297.9,331.5,386.3L331.5,386.3z M595.5,386.3c0,57.4-46.6,103.9-103.9,103.9c-57.4,0-103.9-46.5-103.9-103.9c0-57.4,46.5-103.9,103.9-103.9C548.9,282.4,595.5,328.9,595.5,386.3L595.5,386.3z"/></g>
</svg>