<?xml version="1.0" encoding="iso-8859-1"?>
<!-- Generator: Adobe Illustrator 18.0.0, SVG Export Plug-In . SVG Version: 6.00 Build 0)  -->
<!DOCTYPE svg PUBLIC "-//W3C//DTD SVG 1.1//EN" "http://www.w3.org/Graphics/SVG/1.1/DTD/svg11.dtd">
<svg version="1.1" id="Capa_1" xmlns="http://www.w3.org/2000/svg" xmlns:xlink="http://www.w3.org/1999/xlink" x="0px" y="0px"
     viewBox="0 0 330 330" style="enable-background:new 0 0 330 330;" xml:space="preserve">
<g>
	<path d="M185.606,94.395c-5.857-5.857-15.355-5.857-21.213,0c-5.858,5.857-5.858,15.355,0,21.213l34.395,34.395l-103.79,0.006
		c-8.284,0-15,6.717-14.999,15.001c0,8.284,6.717,14.999,15.001,14.999l103.784-0.006l-34.392,34.393
		c-5.858,5.857-5.858,15.355,0,21.213c2.929,2.929,6.767,4.394,10.606,4.394c3.839,0,7.678-1.465,10.606-4.394l60-60.001
		C248.42,172.793,250,168.979,250,165s-1.581-7.794-4.394-10.606L185.606,94.395z"/>
</g>
</svg>
